<svg width="80" height="80" viewBox="0 0 80 80" fill="none" xmlns="http://www.w3.org/2000/svg">
<g clip-path="url(#clip0_0_295)">
<g clip-path="url(#clip1_0_295)">
<path d="M37.9097 43.3674C37.9097 43.6773 38.1609 43.9286 38.4709 43.9286H39.1893C39.0672 43.5678 39.0232 43.1852 39.0602 42.8062H38.4709C38.1609 42.8062 37.9097 43.0574 37.9097 43.3674Z" fill="#2E2B44"/>
<path d="M42.3527 24.3258C41.9158 24.2327 41.4598 24.317 41.0851 24.5601C40.7104 24.8033 40.4477 25.1853 40.3547 25.6223L38.7384 35.9264C38.6658 36.3185 38.3296 36.607 37.931 36.6191C37.5323 36.6313 37.1792 36.3639 37.0828 35.9769L35.1017 26.8626C35.0133 26.2532 34.5994 25.7407 34.0222 25.5261C33.4451 25.3115 32.7968 25.4291 32.3318 25.8327C31.8668 26.2362 31.6592 26.8615 31.7904 27.4631L33.6706 37.7559C33.8156 38.5397 33.806 39.3442 33.6425 40.1243C34.2164 39.5579 34.8297 39.0328 35.4777 38.5529C36.1519 38.0386 36.9757 37.7588 37.8236 37.7559H41.5726L43.6491 26.3294C43.7439 25.8917 43.6605 25.4343 43.4172 25.0583C43.1739 24.6823 42.7908 24.4187 42.3527 24.3258Z" fill="#2E2B44"/>
<path d="M43.1222 45.1183C42.8293 45.3304 42.4975 45.483 42.1457 45.5672C42.2219 45.6896 42.2894 45.8171 42.3477 45.9489C42.4232 46.1218 42.4068 46.3211 42.3039 46.4792C42.2011 46.6374 42.0257 46.7334 41.837 46.7346C41.6152 46.7331 41.415 46.6012 41.3263 46.3979C40.9681 45.5771 40.1565 45.0478 39.261 45.0509H38.4697C37.5398 45.0509 36.786 44.2971 36.786 43.3672C36.786 42.4374 37.5398 41.6836 38.4697 41.6836H40.1534C41.3932 41.6836 42.3983 40.6785 42.3983 39.4387V38.8774H37.8243C37.2171 38.8774 36.6263 39.0744 36.1406 39.4387C33.9406 41.0774 31.735 43.5188 31.735 46.3024C31.7334 47.5568 32.126 48.7799 32.8574 49.7989L35.6636 53.6713C36.0898 54.2628 36.2891 54.9879 36.2248 55.7142H45.7656C45.7656 54.1877 45.6141 54.5917 48.0835 50.3882C48.7329 49.0753 49.0909 47.6375 49.1329 46.1734V43.5805L47.8253 45.6627C47.3097 46.5515 46.3161 47.0499 45.2954 46.9317C44.2746 46.8136 43.4212 46.1014 43.1222 45.1183Z" fill="#2E2B44"/>
<path d="M40.18 42.806C40.0772 43.2767 40.221 43.7674 40.5617 44.1081C40.9023 44.4487 41.393 44.5926 41.8637 44.4897C42.6775 44.3101 42.9862 43.6759 43.4071 42.9575C45.6969 39.2983 45.6127 39.4443 45.652 39.332C46.1674 38.6081 45.9991 37.6036 45.276 37.0871C44.9119 36.8835 44.4814 36.8342 44.0807 36.9502C43.6799 37.0662 43.3424 37.3378 43.1433 37.7045L42.9918 37.9458C43.314 38.1471 43.5125 38.4976 43.5193 38.8774V39.4387C43.5194 41.2875 42.0288 42.7906 40.18 42.806Z" fill="#2E2B44"/>
<path d="M49.0222 38.8774C48.2934 38.4622 47.3661 38.7128 46.9456 39.4386C46.6201 39.9662 47.1701 39.0345 44.3696 43.558C44.1488 43.9065 44.076 44.3287 44.1676 44.731C44.3149 45.3222 44.8128 45.7606 45.418 45.8317C46.0232 45.9029 46.6092 45.5919 46.8895 45.0509L49.4712 40.9483C49.919 40.2524 49.718 39.3253 49.0222 38.8774Z" fill="#2E2B44"/>
</g>
<path fill-rule="evenodd" clip-rule="evenodd" d="M24.6927 3.04482C29.5457 1.03463 34.7471 0 40 0C45.2529 0 50.4543 1.03463 55.3073 3.04482C60.1604 5.05501 64.5699 8.00138 68.2843 11.7157C71.9986 15.4301 74.945 19.8396 76.9552 24.6927C78.9654 29.5457 80 34.7471 80 40C80 50.6087 75.7857 60.7828 68.2843 68.2843C60.7828 75.7857 50.6087 80 40 80C34.7471 80 29.5457 78.9654 24.6927 76.9552C19.8396 74.945 15.4301 71.9986 11.7157 68.2843C4.21427 60.7828 0 50.6087 0 40C0 29.3913 4.21427 19.2172 11.7157 11.7157C15.4301 8.00138 19.8396 5.05501 24.6927 3.04482ZM40.3571 62.1429C52.3891 62.1429 62.1429 52.3891 62.1429 40.3571C62.1429 28.3252 52.3891 18.5714 40.3571 18.5714C28.3252 18.5714 18.5714 28.3252 18.5714 40.3571C18.5714 52.3891 28.3252 62.1429 40.3571 62.1429Z" fill="#3F2AFF"/>
</g>
<defs>
<clipPath id="clip0_0_295">
<rect width="80" height="80" fill="white"/>
</clipPath>
<clipPath id="clip1_0_295">
<rect width="31.4286" height="31.4286" fill="white" transform="translate(25 24.2858)"/>
</clipPath>
</defs>
</svg>
