<svg width="80" height="80" viewBox="0 0 80 80" fill="none" xmlns="http://www.w3.org/2000/svg">
<g clip-path="url(#clip0_0_282)">
<path fill-rule="evenodd" clip-rule="evenodd" d="M24.6927 3.04482C29.5457 1.03463 34.7471 0 40 0C45.2529 0 50.4543 1.03463 55.3073 3.04482C60.1604 5.05501 64.5699 8.00138 68.2843 11.7157C71.9986 15.4301 74.945 19.8396 76.9552 24.6927C78.9654 29.5457 80 34.7471 80 40C80 50.6087 75.7857 60.7828 68.2843 68.2843C60.7828 75.7857 50.6087 80 40 80C34.7471 80 29.5457 78.9654 24.6927 76.9552C19.8396 74.945 15.4301 71.9986 11.7157 68.2843C4.21427 60.7828 0 50.6087 0 40C0 29.3913 4.21427 19.2172 11.7157 11.7157C15.4301 8.00138 19.8396 5.05501 24.6927 3.04482ZM40.3571 62.1429C52.3891 62.1429 62.1429 52.3891 62.1429 40.3571C62.1429 28.3252 52.3891 18.5714 40.3571 18.5714C28.3252 18.5714 18.5714 28.3252 18.5714 40.3571C18.5714 52.3891 28.3252 62.1429 40.3571 62.1429Z" fill="#3F2AFF"/>
<g clip-path="url(#clip1_0_282)">
<path d="M39.9993 43.1122V33.8508C39.7367 33.8751 39.4772 33.9161 39.2131 33.9282H31.6516C31.2327 33.9282 30.8927 34.2682 30.8927 34.6871V35.446H28.6161C28.1972 35.446 27.8572 35.786 27.8572 36.2049V40.7582C27.8572 41.1771 28.1972 41.517 28.6161 41.517H30.8927V42.2759C30.8927 42.6948 31.2327 43.0348 31.6516 43.0348H32.1115L35.1622 51.167C35.3489 51.6542 35.7662 52.0078 36.2792 52.111C36.3809 52.1323 36.4826 52.1429 36.5828 52.1429C36.988 52.1429 37.3736 51.982 37.6498 51.6936L39.4726 49.886C39.9386 49.42 40.0494 48.693 39.7519 48.1299L37.2051 43.0348H39.2207C39.4817 43.047 39.7397 43.0879 39.9993 43.1122Z" fill="#2E2B44"/>
<path d="M52.0178 28.2245C52.0026 28.1987 51.989 28.1774 51.9693 28.1531C51.8858 28.0469 51.7811 27.9604 51.652 27.9103C51.6475 27.9088 51.6445 27.9027 51.6399 27.9012C51.6247 27.8966 51.6111 27.9042 51.5959 27.8997C51.5276 27.8799 51.4593 27.8572 51.3834 27.8572C51.3318 27.8572 51.2863 27.8769 51.2362 27.8875C51.2073 27.8936 51.18 27.8951 51.1512 27.9042C51.0207 27.9467 50.9083 28.0196 50.8188 28.1198C50.8127 28.1258 50.8036 28.1273 50.7975 28.1334C48.4314 31.0065 45.1317 32.928 41.5179 33.6323V43.3323C45.1317 44.0365 48.4314 45.9565 50.7975 48.8296C50.8036 48.8372 50.8142 48.8402 50.8218 48.8494C50.8749 48.9085 50.9402 48.9556 51.01 48.9951C51.0328 49.0087 51.051 49.0284 51.0738 49.0391C51.1694 49.0801 51.2726 49.1059 51.3834 49.1059C51.4699 49.1059 51.5549 49.0907 51.6399 49.0618C51.6445 49.0603 51.6475 49.0542 51.652 49.0527C51.7811 49.0026 51.8858 48.9177 51.9693 48.8099C51.9875 48.7856 52.0011 48.7644 52.0178 48.7386C52.0907 48.6217 52.1423 48.4927 52.1423 48.347V28.6161C52.1423 28.4704 52.0907 28.3413 52.0178 28.2245Z" fill="#2E2B44"/>
</g>
</g>
<defs>
<clipPath id="clip0_0_282">
<rect width="80" height="80" fill="white"/>
</clipPath>
<clipPath id="clip1_0_282">
<rect width="24.2857" height="24.2857" fill="white" transform="translate(27.8572 27.8572)"/>
</clipPath>
</defs>
</svg>
